<svg width="300" height="300" viewBox="0 0 300 300" fill="none" xmlns="http://www.w3.org/2000/svg">
<path fill-rule="evenodd" clip-rule="evenodd" d="M0 20C0 8.9543 8.9543 0 20 0H80C91.046 0 100 8.9543 100 20V24V80V100H200V80V24V20C200 8.9543 208.954 0 220 0H280C291.046 0 300 8.9543 300 20V44V80V280C300 291.046 291.046 300 280 300H20C8.9543 300 0 291.046 0 280V80V44V20Z" fill="#00B5AB"/>
<path d="M50 55C52.7614 55 55 52.7614 55 50C55 47.2386 52.7614 45 50 45C47.2386 45 45 47.2386 45 50C45 52.7614 47.2386 55 50 55Z" fill="white"/>
<path d="M250 55C252.761 55 255 52.7614 255 50C255 47.2386 252.761 45 250 45C247.239 45 245 47.2386 245 50C245 52.7614 247.239 55 250 55Z" fill="white"/>
<path d="M150 180L184 214L218 180M150 180L116 214L82 180" stroke="white" stroke-width="8" stroke-linecap="round"/>
</svg>
